<svg width="1000" height="1000" viewBox="0 0 1000 1000" fill="none" xmlns="http://www.w3.org/2000/svg">
<rect width="1000" height="1000" fill="url(#paint0_linear_185_117)"/>
<path d="M273.375 545H254.062V505.562H217.875V545H198.5V453.625H217.875V489.438H254.062V453.625H273.375V545ZM379.438 499.188C379.438 514.312 375.688 525.938 368.188 534.062C360.688 542.188 349.938 546.25 335.938 546.25C321.938 546.25 311.188 542.188 303.688 534.062C296.188 525.938 292.438 514.271 292.438 499.062C292.438 483.854 296.188 472.25 303.688 464.25C311.229 456.208 322.021 452.188 336.062 452.188C350.104 452.188 360.833 456.229 368.25 464.312C375.708 472.396 379.438 484.021 379.438 499.188ZM312.75 499.188C312.75 509.396 314.688 517.083 318.562 522.25C322.438 527.417 328.229 530 335.938 530C351.396 530 359.125 519.729 359.125 499.188C359.125 478.604 351.438 468.312 336.062 468.312C328.354 468.312 322.542 470.917 318.625 476.125C314.708 481.292 312.75 488.979 312.75 499.188ZM398.375 453.625H426.812C439.771 453.625 449.167 455.479 455 459.188C460.875 462.854 463.812 468.708 463.812 476.75C463.812 482.208 462.521 486.688 459.938 490.188C457.396 493.688 454 495.792 449.75 496.5V497.125C455.542 498.417 459.708 500.833 462.25 504.375C464.833 507.917 466.125 512.625 466.125 518.5C466.125 526.833 463.104 533.333 457.062 538C451.062 542.667 442.896 545 432.562 545H398.375V453.625ZM417.75 489.812H429C434.25 489.812 438.042 489 440.375 487.375C442.75 485.75 443.938 483.062 443.938 479.312C443.938 475.812 442.646 473.312 440.062 471.812C437.521 470.271 433.479 469.5 427.938 469.5H417.75V489.812ZM417.75 505.188V529H430.375C435.708 529 439.646 527.979 442.188 525.938C444.729 523.896 446 520.771 446 516.562C446 508.979 440.583 505.188 429.75 505.188H417.75ZM567.312 499.188C567.312 514.312 563.562 525.938 556.062 534.062C548.562 542.188 537.812 546.25 523.812 546.25C509.812 546.25 499.062 542.188 491.562 534.062C484.062 525.938 480.312 514.271 480.312 499.062C480.312 483.854 484.062 472.25 491.562 464.25C499.104 456.208 509.896 452.188 523.938 452.188C537.979 452.188 548.708 456.229 556.125 464.312C563.583 472.396 567.312 484.021 567.312 499.188ZM500.625 499.188C500.625 509.396 502.562 517.083 506.438 522.25C510.312 527.417 516.104 530 523.812 530C539.271 530 547 519.729 547 499.188C547 478.604 539.312 468.312 523.938 468.312C516.229 468.312 510.417 470.917 506.5 476.125C502.583 481.292 500.625 488.979 500.625 499.188ZM625.062 468.438C617.771 468.438 612.125 471.188 608.125 476.688C604.125 482.146 602.125 489.771 602.125 499.562C602.125 519.938 609.771 530.125 625.062 530.125C631.479 530.125 639.25 528.521 648.375 525.312V541.562C640.875 544.688 632.5 546.25 623.25 546.25C609.958 546.25 599.792 542.229 592.75 534.188C585.708 526.104 582.188 514.521 582.188 499.438C582.188 489.938 583.917 481.625 587.375 474.5C590.833 467.333 595.792 461.854 602.25 458.062C608.75 454.229 616.354 452.312 625.062 452.312C633.938 452.312 642.854 454.458 651.812 458.75L645.562 474.5C642.146 472.875 638.708 471.458 635.25 470.25C631.792 469.042 628.396 468.438 625.062 468.438ZM703.125 545H683.75V469.75H658.938V453.625H727.938V469.75H703.125V545ZM806.375 516.438C806.375 535.479 793.792 545 768.625 545H742V453.625H761.375V488.688H769C780.917 488.688 790.125 491.104 796.625 495.938C803.125 500.771 806.375 507.604 806.375 516.438ZM761.375 529.125H767.875C774.417 529.125 779.208 528.083 782.25 526C785.292 523.875 786.812 520.688 786.812 516.438C786.812 512.229 785.271 509.208 782.188 507.375C779.104 505.5 773.812 504.562 766.312 504.562H761.375V529.125Z" fill="white"/>
<defs>
<linearGradient id="paint0_linear_185_117" x1="1546.5" y1="-91" x2="-3.25143e-05" y2="1000" gradientUnits="userSpaceOnUse">
<stop stop-color="#060606"/>
<stop offset="1" stop-color="#303030"/>
</linearGradient>
</defs>
</svg>
